<mxfile host="app.diagrams.net" modified="2023-12-15T03:21:22.025Z" agent="Mozilla/5.0 (Macintosh; Intel Mac OS X 10_15_7) AppleWebKit/537.36 (KHTML, like Gecko) Chrome/119.0.0.0 Safari/537.36" version="22.1.9" etag="kPzD0Z4HA72ApF5v3P5N" type="github">
  <diagram name="第 1 页" id="5bS8XD7eFEel6jkaujmy">
    <mxGraphModel>
      <root>
        <mxCell id="0" />
        <mxCell id="1" parent="0" />
      </root>
    </mxGraphModel>
  </diagram>
</mxfile>
